<svg width="42" height="42" viewBox="0 0 42 42" fill="none" xmlns="http://www.w3.org/2000/svg">
<path d="M1.97268 0.58564C0 1.78774 0 1.72609 0 11.1888C0 18.0315 0.0924692 19.9117 0.431523 20.5898C1.10963 21.8536 20.0658 40.594 21.0522 40.9639C21.5453 41.1488 22.5008 41.3029 23.179 41.3029C24.4427 41.3029 24.5968 41.1796 32.58 33.1964C41.2105 24.5968 41.8577 23.7954 41.2721 21.7611C41.0872 21.1138 37.8816 17.6924 31.0388 10.8497C25.5832 5.36321 20.7439 0.678107 20.2816 0.431522C19.6035 0.0924686 17.7849 0 11.1888 0C3.6063 0 2.83572 0.0616477 1.97268 0.58564ZM8.26058 4.16111C10.4798 6.75025 6.90437 10.4182 4.22276 8.32223C2.68161 7.12013 2.89737 4.46935 4.59264 3.54465C5.70227 2.89737 7.39754 3.17478 8.26058 4.16111ZM21.5145 9.89421C24.6276 11.4354 26.2613 14.0861 26.2921 17.5692C26.3229 18.9562 26.1071 20.0042 25.6756 20.9905L25.0283 22.4392L28.0798 25.4599C31.2854 28.6346 31.6553 29.4052 30.6073 30.5765C29.5593 31.7478 28.6655 31.3162 25.4599 28.0798L22.4392 25.0283L20.9905 25.6756C20.0042 26.1071 18.9562 26.3229 17.5692 26.2921C14.0861 26.2613 11.4354 24.6276 9.89421 21.5145C6.10297 13.9937 13.9937 6.10297 21.5145 9.89421Z" fill="#ECECEC"/>
<path d="M14.8567 11.8977C13.4697 12.6067 11.7744 14.6718 11.5278 15.9356C10.5107 21.268 15.2266 25.4599 19.9425 23.4256C21.8536 22.6242 22.5625 21.8844 23.4564 19.9117C24.5968 17.2918 23.6413 14.1478 21.1754 12.4217C19.6343 11.3429 16.4595 11.0963 14.8567 11.8977Z" fill="#ECECEC"/>
</svg>
