<svg width="40" height="62" viewBox="0 0 44 62" fill="none" xmlns="http://www.w3.org/2000/svg">
<path id="Subtract" fill-rule="evenodd" clip-rule="evenodd" d="M44 0L44 39.9501L38.5 49L32.6024 57.2939C30.432 59.7256 26.2709 62.5903 21.5 61C16.6744 59.3915 9.40505 50.8905 3.76743 44.2977L3.76721 44.2974C2.39525 42.693 1.11993 41.2016 -9.37567e-06 39.9501L-7.62939e-06 -1.9233e-06L44 0ZM23.4737 55.9474C21.5552 55.9474 20 54.3921 20 52.4737C20 50.5552 21.5552 49 23.4737 49C25.3921 49 26.9474 50.5552 26.9474 52.4737C26.9474 54.3921 25.3921 55.9474 23.4737 55.9474ZM24.5392 22.5L27.9412 19.098C28.0711 18.9586 28.1418 18.7743 28.1384 18.5838C28.135 18.3933 28.0579 18.2116 27.9232 18.0768C27.7884 17.9421 27.6067 17.865 27.4162 17.8616C27.2257 17.8582 27.0413 17.9289 26.902 18.0588L23.5 21.4608L20.098 18.0588C19.9587 17.9289 19.7743 17.8582 19.5838 17.8616C19.3933 17.865 19.2116 17.9421 19.0768 18.0768C18.9421 18.2116 18.865 18.3933 18.8616 18.5838C18.8582 18.7743 18.9289 18.9586 19.0588 19.098L22.4608 22.5L19.0588 25.902C18.9289 26.0413 18.8582 26.2257 18.8616 26.4162C18.865 26.6067 18.9421 26.7884 19.0768 26.9232C19.2116 27.0579 19.3933 27.135 19.5838 27.1384C19.7743 27.1418 19.9587 27.0711 20.098 26.9412L23.5 23.5392L26.902 26.9412C26.9693 27.0134 27.0505 27.0714 27.1406 27.1115C27.2308 27.1517 27.3282 27.1733 27.4269 27.1751C27.5257 27.1768 27.6237 27.1587 27.7153 27.1217C27.8068 27.0847 27.89 27.0297 27.9598 26.9598C28.0297 26.89 28.0847 26.8068 28.1217 26.7153C28.1587 26.6237 28.1768 26.5257 28.1751 26.4269C28.1733 26.3282 28.1517 26.2308 28.1116 26.1406C28.0714 26.0504 28.0134 25.9693 27.9412 25.902L24.5392 22.5ZM33.8934 29.4446C35.2669 27.389 36 24.9723 36 22.5C35.9961 19.186 34.6779 16.0088 32.3345 13.6655C29.9912 11.3221 26.814 10.0039 23.5 10C21.0277 10 18.611 10.7331 16.5554 12.1066C14.4998 13.4801 12.8976 15.4324 11.9515 17.7165C11.0054 20.0005 10.7579 22.5139 11.2402 24.9386C11.7225 27.3634 12.913 29.5907 14.6612 31.3388C16.4093 33.087 18.6366 34.2775 21.0614 34.7598C23.4861 35.2421 25.9995 34.9946 28.2835 34.0485C30.5676 33.1024 32.5199 31.5002 33.8934 29.4446ZM32.6706 16.3724C33.8825 18.1862 34.5294 20.3186 34.5294 22.5C34.5262 25.4242 33.3631 28.2277 31.2954 30.2954C29.2277 32.3631 26.4242 33.5262 23.5 33.5294C21.3186 33.5294 19.1862 32.8825 17.3724 31.6706C15.5586 30.4587 14.1449 28.7361 13.3102 26.7208C12.4754 24.7054 12.2569 22.4878 12.6825 20.3483C13.1081 18.2088 14.1585 16.2435 15.701 14.701C17.2435 13.1585 19.2088 12.1081 21.3483 11.6825C23.4878 11.2569 25.7054 11.4754 27.7208 12.3102C29.7361 13.1449 31.4587 14.5586 32.6706 16.3724Z" fill="#EC221F"/>
</svg>
